<?xml version="1.0" encoding="UTF-8" standalone="no"?>
<!-- Created with Inkscape (http://www.inkscape.org/) -->

<svg
   version="1.1"
   id="svg1"
   width="786"
   height="747"
   viewBox="0 0 786 747"
   xmlns="http://www.w3.org/2000/svg"
   xmlns:svg="http://www.w3.org/2000/svg">
  <defs
     id="defs1" />
  <g
     id="g1">
    <g
       id="g2"
       transform="translate(7.9625061e-6,2.5394643)">
      <path
         d="m 485.5957,155.99374 c -1.16772,1.44219 -1.94362,2.30968 -2.16993,2.39648 -0.6973,0.26758 -5.98627,-0.36419 -11.7539,-1.40429 -25.89716,-4.67012 -37.36512,-5.4668 -78.67188,-5.4668 -41.30676,0 -52.77471,0.79668 -78.67187,5.4668 -5.76763,1.0401 -11.05661,1.67187 -11.75391,1.40429 -0.69729,-0.26757 -6.60967,-7.93683 -13.13867,-17.04297 C 260.78928,101.39368 231.80421,71.983549 196.9707,47.524989 175.16555,32.214375 145.34483,17.153115 131.01562,14.214442 c -3.32217,-0.681318 -6.20426,-1.064037 -8.76758,-1.080078 -2.96453,0.62774 -5.8683,1.287282 -8.70703,1.978515 -0.33371,0.183136 -0.6617,0.379235 -0.98633,0.589844 -1.30987,1.030254 -2.49597,2.290287 -3.58398,3.78125 C 100.66829,30.861177 90.262551,56.277782 83.812492,80.935145 73.516002,120.2967 70.428499,156.51026 73.310539,204.08163 c 1.741341,28.74282 8.66599,62.77366 18.90625,92.9082 5.940917,17.48264 7.593763,10.57652 -13.513672,56.48438 -25.489813,55.43935 -31.618898,65.68283 -50.132812,83.77734 -9.628839,9.41071 -12.300782,12.59835 -12.300782,14.67774 0,11.56305 37.594326,60.0086 68.154297,87.82617 38.05617,34.64107 69.04823,56.66352 139.3457,99.01758 20.35,12.26082 54.1,32.94532 75,45.96679 62.40736,38.88209 77.81041,46.68134 94.5,47.84571 0.825,0.0575 4.23878,-0.29099 7.58594,-0.77539 13.91935,-2.01439 31.75014,-11.45508 88.91406,-47.07032 20.9,-13.02147 54.65,-33.70597 75,-45.96679 70.29747,-42.35406 101.28954,-64.37651 139.34571,-99.01758 19.20671,-17.48314 41.19233,-43.11514 54.87695,-62.61719 7.41175,-10.9595 12.00781,-19.89175 12.00781,-24.45703 0,-2.9995 -1.16176,-4.45163 -10.44336,-13.05859 -11.97479,-11.10439 -17.99049,-18.73619 -26.52929,-33.6543 -9.00455,-15.7318 -43.02735,-89.14567 -43.02735,-92.84375 0,-0.92702 1.99997,-7.55752 4.44336,-14.73633 3.12997,-9.19603 5.92828,-19.49749 8.54883,-29.9043 0.51135,-2.00903 1.12587,-3.94726 1.60547,-5.96289 2.20886,-9.33232 3.91369,-18.78134 5.49805,-28.13086 0.60584,-3.81598 1.0652,-7.49283 1.53125,-11.22461 0,0 0,-0.002 0,-0.002 2.21676,-18.75398 2.99429,-72.59814 1.0039,-88.79883 -5.0418,-41.037537 -14.88653,-76.511553 -28.69336,-103.390622 -5.19318,-10.110065 -9.43504,-15.275465 -15.4414,-17.072266 -0.60408,-0.143664 -1.20604,-0.28899 -1.81641,-0.429688 -3.48025,-0.626725 -7.55512,-0.311977 -12.69531,0.742188 -4.01155,0.822698 -9.36105,2.713425 -15.28516,5.175781 -7.75599,3.278068 -15.90685,7.063429 -24.42578,11.876953 -7.45993,4.109682 -14.70633,8.765435 -21.62695,13.398438 -6.58181,4.437502 -12.90981,9.10067 -18.83008,13.814453 -0.42354,0.33044 -0.85544,0.654017 -1.27735,0.986328 -13.88395,11.182092 -25.94199,22.290081 -37.35937,34.316406 -5.00415,5.254897 -9.74013,11.822019 -14.61328,17.546879 -6.98726,8.32048 -14.00904,16.04072 -21.05274,25.82226 -8.13013,11.29029 -11.45747,16.65635 -14.91796,18.8418 z M 127.96874,37.030848 c 2.96258,0.01111 8.60685,2.481169 21.92969,9.144531 28.70909,14.358729 52.9516,32.138664 78.45312,57.537111 20.97801,20.89322 32.77632,35.40337 51.64649,63.51758 9.50619,14.163 11.58032,16.5 14.64453,16.5 1.26278,-1e-5 11.70959,-1.54987 23.21289,-3.44336 32.88206,-5.41254 39.92632,-5.96094 76.41406,-5.96094 36.48774,0 43.53396,0.5484 76.41602,5.96094 11.50333,1.8935 21.9482,3.44336 23.21094,3.44336 3.0642,-1e-5 5.13836,-2.33703 14.64453,-16.5 18.87024,-28.11421 30.66847,-42.62436 51.64648,-63.51758 25.50152,-25.398447 49.74404,-43.178382 78.45313,-57.537111 17.76378,-8.884483 21.87788,-10.313961 24.18359,-8.40039 3.96378,3.289639 12.56471,23.373927 17.53906,40.955078 11.01904,38.945313 15.15566,74.984623 12.94922,112.832033 -2.28272,39.1557 -8.77358,70.83693 -21.23828,103.66797 -3.6667,9.65779 -4.8182,13.93393 -4.48047,16.63281 0.53754,4.29564 18.39985,44.30057 33.65235,75.36719 12.39844,25.25342 24.8345,44.75192 36.54687,57.30273 3.67764,3.94088 5.84156,6.02572 6.49609,7.98242 0.0162,0.0483 0.0287,0.0964 0.043,0.14453 0.0367,0.1236 0.0672,0.24775 0.0918,0.3711 0.0114,0.0572 0.0225,0.11457 0.0312,0.17187 0.0172,0.11223 0.028,0.22484 0.0352,0.33789 0.004,0.0655 0.0109,0.13132 0.0117,0.19727 0.002,0.16622 -0.004,0.33534 -0.0234,0.50586 -0.0199,0.17418 -0.0555,0.35236 -0.0977,0.5332 -0.0148,0.0634 -0.0333,0.129 -0.0508,0.19336 -0.0356,0.13097 -0.0761,0.26471 -0.12305,0.40039 -0.0147,0.0426 -0.031,0.0858 -0.0469,0.12891 -0.15159,0.41223 -0.34788,0.84707 -0.60156,1.31836 -1.05117,1.952 -2.9787,4.50351 -5.78125,8.41211 -8.9586,12.49414 -19.58369,25.42644 -29.19532,35.53515 -16.87918,17.75208 -52.88331,48.39806 -76.57617,65.18164 -11.79264,8.35368 -29.60534,19.24623 -30.31445,18.53711 -0.25291,-0.25291 7.31041,-6.92403 16.80859,-14.82617 31.87258,-26.51682 60.01661,-56.01718 75.29883,-78.92773 8.4931,-12.73254 9.07668,-14.3784 5.96484,-16.82617 -3.78603,-2.97809 -23.60112,-9.13571 -33.26171,-10.33594 -13.77132,-1.71094 -31.66385,-0.50953 -45.23243,3.03515 -27.22005,7.11102 -50.6756,17.97858 -77.10937,35.73047 -18.80403,12.62805 -27.18159,19.71638 -54.24219,45.89063 -14.21864,13.75291 -28.52723,27.11894 -31.79687,29.70117 -11.43189,9.02843 -31.14991,17.32314 -48.15235,20.25781 -0.94916,0.16383 -1.66183,0.28775 -2.1914,0.46094 -0.15222,0.0498 -0.28487,0.10569 -0.40821,0.16602 -0.0497,0.0243 -0.0992,0.0496 -0.14453,0.0762 -0.13556,0.0794 -0.25428,0.16736 -0.35351,0.27148 -0.012,0.0126 -0.0256,0.028 -0.0371,0.041 -0.0203,0.0231 -0.0398,0.0478 -0.0586,0.0723 -0.11249,0.14646 -0.19969,0.31785 -0.26367,0.52344 -0.0283,0.0911 -0.0502,0.18996 -0.0703,0.29492 -0.028,0.14548 -0.0424,0.31882 -0.0566,0.49414 -0.0644,0.78441 -0.008,1.86272 0.084,3.45117 0.28643,4.95423 0.51812,5.34128 4.97266,8.31836 9.56546,6.39284 22.8799,6.51386 38.39258,0.35157 9.03944,-3.59085 9.58034,-3.61395 13.10742,-0.58008 2.19183,1.88533 2.7832,3.25389 2.7832,6.44336 0,0.63657 -0.0414,1.24044 -0.1289,1.8164 -0.61362,4.03567 -3.52682,6.74386 -10.875,10.35352 -0.19467,0.10729 -0.39629,0.20152 -0.60157,0.29297 -0.19333,0.0931 -0.39043,0.18662 -0.58984,0.28125 -0.0981,0.0466 -0.18736,0.0751 -0.28516,0.12109 -1.87869,0.97292 -3.83734,1.96488 -5.65039,2.66406 -17.82877,6.8755 -28.32966,6.21942 -51.34375,-3.20507 -2.71627,-1.11239 -3.78373,-1.10657 -6.5,0.0312 -15.54499,6.51189 -28.81589,8.95396 -38.75,7.13086 -7.64479,-1.40297 -20.44553,-6.88901 -24.82617,-10.63868 -3.58091,-3.06512 -4.17383,-4.12859 -4.17383,-7.49414 0,-2.57476 0.67244,-4.57998 1.97852,-5.90039 0.43222,-0.69938 0.97196,-1.33981 1.61914,-1.89648 3.52708,-3.03387 4.06993,-3.01077 13.10937,0.58008 15.51268,6.16229 28.82517,6.04127 38.39063,-0.35157 2.27003,-1.51711 3.44336,-2.3617 4.08594,-3.48046 0.36593,-1.54863 0.69592,-4.74736 0.95117,-8.57227 -0.0128,-0.096 -0.0288,-0.18596 -0.0469,-0.27148 -0.008,-0.0387 -0.018,-0.0766 -0.0273,-0.11329 -0.0231,-0.0906 -0.0495,-0.1726 -0.0801,-0.25195 -0.0421,-0.10879 -0.0905,-0.20913 -0.14844,-0.29883 -0.09,-0.13886 -0.20445,-0.2554 -0.33789,-0.35742 -0.0238,-0.0182 -0.047,-0.0375 -0.0723,-0.0547 -0.0331,-0.0225 -0.0678,-0.0454 -0.10352,-0.0664 -0.0342,-0.0201 -0.0707,-0.0379 -0.10742,-0.0566 -0.14957,-0.0767 -0.32147,-0.14442 -0.51563,-0.20508 -0.0252,-0.008 -0.0501,-0.0158 -0.0762,-0.0234 -0.0607,-0.0179 -0.13214,-0.0337 -0.19726,-0.0508 -0.45135,-0.11804 -0.99176,-0.21829 -1.6836,-0.33789 -0.0551,-0.01 -0.11113,-0.0195 -0.16797,-0.0293 -17.00244,-2.93467 -36.72045,-11.22938 -48.15234,-20.25781 -3.26964,-2.58223 -17.57823,-15.94826 -31.79687,-29.70117 -27.0606,-26.17425 -35.43816,-33.26258 -54.24219,-45.89063 -26.43377,-17.75189 -49.88933,-28.61945 -77.10938,-35.73047 -13.56858,-3.54468 -31.4611,-4.74609 -45.23242,-3.03515 -9.66059,1.20023 -29.47569,7.35785 -33.261717,10.33594 -3.111836,2.44777 -2.528255,4.09363 5.964843,16.82617 15.282224,22.91055 43.426244,52.41091 75.298824,78.92773 9.49818,7.90214 17.06346,14.57326 16.81055,14.82617 -0.70911,0.70912 -18.52376,-10.18343 -30.3164,-18.53711 C 132.84034,549.16328 96.836203,518.5173 79.957023,500.76522 70.345389,490.65651 59.722255,477.72421 50.763664,465.23007 c -8.968173,-12.5075 -8.967498,-11.10666 -0.01758,-20.69727 11.712371,-12.55081 24.148431,-32.04931 36.546875,-57.30273 15.252491,-31.06662 33.114801,-71.07155 33.652341,-75.36719 0.33773,-2.69888 -0.81376,-6.97502 -4.48046,-16.63281 -12.4647,-32.83104 -18.955575,-64.51227 -21.238287,-103.66797 -2.20644,-37.84741 1.930193,-73.88672 12.949217,-112.832033 4.97435,-17.581151 13.57529,-37.665439 17.53907,-40.955078 0.57642,-0.478393 1.26637,-0.747841 2.2539,-0.744141 z"
         style="fill:#fae2be"
         id="path103" />
      <path
         d="m 127.96874,37.030848 c -0.98753,-0.0037 -1.67748,0.265748 -2.2539,0.744141 -3.96378,3.289639 -12.56472,23.373927 -17.53907,40.955078 C 97.156748,117.67538 93.020115,153.71469 95.226555,191.5621 c 2.282712,39.1557 8.773585,70.83693 21.238285,103.66797 3.6667,9.65779 4.81819,13.93393 4.48046,16.63281 -0.53754,4.29564 -18.39985,44.30057 -33.652339,75.36719 -12.398444,25.25342 -24.834504,44.75192 -36.546875,57.30273 -8.94992,9.59061 -8.950595,8.18977 0.01758,20.69727 8.958591,12.49414 19.581725,25.42644 29.193359,35.53515 16.87918,17.75208 52.883315,48.39806 76.576175,65.18164 11.79264,8.35368 29.60729,19.24623 30.3164,18.53711 0.25291,-0.25291 -7.31237,-6.92403 -16.81055,-14.82617 -31.87258,-26.51682 -60.0166,-56.01718 -75.298822,-78.92773 -8.493098,-12.73254 -9.076679,-14.3784 -5.964843,-16.82617 3.786027,-2.97809 23.601125,-9.13571 33.261715,-10.33594 13.77132,-1.71094 31.66384,-0.50953 45.23242,3.03515 27.22005,7.11102 50.67561,17.97858 77.10938,35.73047 18.80403,12.62805 27.18159,19.71638 54.24219,45.89063 14.21864,13.75291 28.52723,27.11894 31.79687,29.70117 11.43189,9.02843 31.1499,17.32314 48.15234,20.25781 0.76619,0.13225 1.36558,0.23995 1.85157,0.36719 0.0627,0.0164 0.13874,0.0336 0.19726,0.0508 0.0258,0.008 0.0511,0.0156 0.0762,0.0234 0.19465,0.0605 0.36579,0.12838 0.51563,0.20508 0.0366,0.0188 0.0733,0.0366 0.10742,0.0566 0.036,0.0211 0.0702,0.0437 0.10352,0.0664 0.0254,0.0173 0.0484,0.0364 0.0723,0.0547 0.0272,0.0208 0.0587,0.0384 0.084,0.0605 0.0932,0.0817 0.17142,0.17586 0.24023,0.27929 0.004,0.005 0.0101,0.0121 0.0137,0.0176 0.004,0.006 0.008,0.0116 0.0117,0.0176 0.0528,0.0844 0.0976,0.17966 0.13672,0.28125 0.043,0.1109 0.079,0.23141 0.10742,0.36524 0.0181,0.0855 0.0341,0.17547 0.0469,0.27148 0.62369,-9.34659 0.80944,-22.44379 0.041,-24.41016 -0.57477,-1.47082 -3.12576,-3.82845 -5.84765,-5.40429 -12.91518,-7.47725 -24.33122,-19.57539 -27.83008,-29.49219 -3.33672,-9.45728 -0.6381,-18.55611 7.18164,-24.2207 5.19855,-3.76581 12.39097,-4.66602 37.32031,-4.66602 24.92934,0 32.12176,0.90021 37.32031,4.66602 7.81974,5.66459 10.51837,14.76342 7.18165,24.2207 -3.49886,9.9168 -14.9149,22.01494 -27.83008,29.49219 -2.72189,1.57584 -5.27289,3.93347 -5.84766,5.40429 -1.1335,2.90055 -0.18935,30.02251 1.16992,33.59766 0.44549,1.17173 3.66709,3.67761 7.15821,5.57031 6.05889,3.28483 6.80228,3.43943 16.34765,3.39063 8.76807,-0.0448 10.98554,-0.43704 18,-3.18555 10.94261,-4.28771 12.35985,-4.40382 15.5,-1.26367 1.32009,1.32009 2,3.33312 2,5.92187 0,3.36555 -0.59292,4.42902 -4.17383,7.49414 -1.1113,0.95125 -2.97504,2.14802 -5.10546,3.32227 2.09948,-1.03133 3.83645,-1.98976 5.26171,-2.92578 1.42521,-0.936 2.53809,-1.85016 3.38868,-2.79492 1.27592,-1.41717 1.96163,-2.90324 2.22461,-4.63282 0.0875,-0.57596 0.1289,-1.17983 0.1289,-1.8164 0,-3.18947 -0.59137,-4.55803 -2.7832,-6.44336 -3.52708,-3.03387 -4.06798,-3.01077 -13.10742,0.58008 -15.51268,6.16229 -28.82712,6.04127 -38.39258,-0.35157 -4.45454,-2.97708 -4.68623,-3.36413 -4.97266,-8.31836 -0.0915,-1.58292 -0.14743,-2.66738 -0.084,-3.45117 10e-4,-0.0173 -0.004,-0.0592 -0.002,-0.0762 0.0138,-0.15173 0.0339,-0.28939 0.0586,-0.41797 0.0201,-0.10466 0.042,-0.20406 0.0703,-0.29492 0.0237,-0.0763 0.052,-0.14739 0.082,-0.21484 0.006,-0.0134 0.0113,-0.0279 0.0176,-0.041 0.0316,-0.0663 0.067,-0.12727 0.10547,-0.18555 0.0458,-0.0694 0.0979,-0.13587 0.1543,-0.19531 0.0537,-0.0563 0.11176,-0.10767 0.17578,-0.15625 0.0545,-0.0414 0.11523,-0.0787 0.17773,-0.11523 0.0454,-0.0266 0.0947,-0.0518 0.14453,-0.0762 0.0381,-0.0186 0.0744,-0.0391 0.11524,-0.0566 0.0909,-0.039 0.18816,-0.0751 0.29297,-0.10937 0.52957,-0.17319 1.24224,-0.29711 2.1914,-0.46094 17.00244,-2.93467 36.72046,-11.22938 48.15235,-20.25781 3.26964,-2.58223 17.57823,-15.94826 31.79687,-29.70117 27.0606,-26.17425 35.43816,-33.26258 54.24219,-45.89063 26.43377,-17.75189 49.88932,-28.61945 77.10937,-35.73047 13.56858,-3.54468 31.46111,-4.74609 45.23243,-3.03515 9.66059,1.20023 29.47568,7.35785 33.26171,10.33594 3.11184,2.44777 2.52826,4.09363 -5.96484,16.82617 -15.28222,22.91055 -43.42625,52.41091 -75.29883,78.92773 -9.49818,7.90214 -17.0615,14.57326 -16.80859,14.82617 0.70911,0.70912 18.52181,-10.18343 30.31445,-18.53711 23.69286,-16.78358 59.69699,-47.42956 76.57617,-65.18164 9.61163,-10.10871 20.23672,-23.04101 29.19532,-35.53515 2.79987,-3.90486 4.72351,-6.45286 5.77539,-8.4043 0.001,-0.002 0.005,-0.006 0.006,-0.008 0.01,-0.0178 0.014,-0.0331 0.0234,-0.0508 0.24048,-0.45105 0.43217,-0.87086 0.57813,-1.26758 0.0158,-0.0431 0.0322,-0.0864 0.0469,-0.12891 0.0472,-0.13641 0.0873,-0.26875 0.12305,-0.40039 0.0175,-0.0644 0.036,-0.12998 0.0508,-0.19336 0.0419,-0.1799 0.0778,-0.35793 0.0977,-0.53125 0,0 0,-0.002 0,-0.002 0.0195,-0.17117 0.0254,-0.33902 0.0234,-0.50586 -8e-4,-0.0664 -0.008,-0.13136 -0.0117,-0.19727 -0.007,-0.11297 -0.018,-0.22573 -0.0352,-0.33789 -0.009,-0.0573 -0.0198,-0.11464 -0.0312,-0.17187 -0.0246,-0.12379 -0.055,-0.24706 -0.0918,-0.3711 -0.0143,-0.0482 -0.0268,-0.0962 -0.043,-0.14453 -0.0572,-0.17116 -0.12274,-0.3433 -0.20312,-0.51757 -0.83856,-1.81821 -2.93673,-3.86837 -6.29297,-7.46485 -11.71237,-12.55081 -24.14843,-32.04931 -36.54687,-57.30273 -15.2525,-31.06662 -33.11481,-71.07155 -33.65235,-75.36719 -0.33773,-2.69888 0.81377,-6.97502 4.48047,-16.63281 12.4647,-32.83104 18.95556,-64.51227 21.23828,-103.66797 2.20644,-37.84741 -1.93018,-73.88672 -12.94922,-112.832033 -4.97435,-17.581151 -13.57528,-37.665439 -17.53906,-40.955078 -2.30571,-1.913571 -6.41981,-0.484093 -24.18359,8.40039 -28.70909,14.358729 -52.95161,32.138664 -78.45313,57.537111 -20.97801,20.89322 -32.77624,35.40337 -51.64648,63.51758 -9.50617,14.16297 -11.58033,16.49999 -14.64453,16.5 -1.26274,0 -11.70761,-1.54986 -23.21094,-3.44336 -32.88206,-5.41254 -39.92828,-5.96094 -76.41602,-5.96094 -36.48774,0 -43.532,0.5484 -76.41406,5.96094 -11.5033,1.89349 -21.95011,3.44335 -23.21289,3.44336 -3.06421,0 -5.13834,-2.337 -14.64453,-16.5 -18.87035,-28.1139 -30.66866,-42.62405 -51.64667,-63.51727 C 202.85003,78.314043 178.60752,60.534108 149.89843,46.175379 136.57559,39.512017 130.93132,37.041955 127.96874,37.030848 Z m 16.98828,65.556642 c 0.21012,0.004 0.43815,0.0296 0.67774,0.0684 0.0868,0.014 0.18249,0.0381 0.27344,0.0566 0.14423,0.0294 0.29425,0.0628 0.44921,0.10351 0.20385,0.0536 0.45435,0.14976 0.67774,0.22266 0.35573,0.11617 0.74535,0.25743 1.1543,0.42188 1.151,0.46344 2.47911,1.07772 4.11914,1.91015 2.41385,1.22521 4.93312,2.70485 7.51757,4.37696 0.86653,0.56062 1.77304,1.25678 2.6543,1.86328 1.69114,1.16383 3.37209,2.31574 5.10547,3.63672 1.86886,1.42407 3.78272,3.30064 5.68164,4.88867 3.61303,3.02111 7.19453,5.97755 10.8125,9.49023 3.84332,3.73028 7.49097,7.8607 11.18164,11.99024 1.86214,2.08331 3.81148,3.95707 5.60352,6.11132 5.34218,6.42102 10.34863,13.0842 14.69726,19.77149 5.65205,8.69167 10.66008,17.57292 14.36914,25.01172 1.27358,2.54993 2.15749,4.5732 3.04492,6.65429 0.50398,1.18118 1.22276,2.62255 1.58204,3.61133 0.31931,0.87819 0.52443,1.59455 0.71875,2.29883 0.11313,0.40992 0.30111,0.92415 0.36914,1.26953 0.0196,0.0995 0.0389,0.19712 0.0547,0.29102 0.0169,0.10096 0.0345,0.20248 0.0469,0.29687 0.0139,0.10542 0.0211,0.20176 0.0293,0.29883 0.008,0.0942 0.0171,0.19113 0.0195,0.27734 0.003,0.0976 -0.004,0.18241 -0.008,0.26954 -0.003,0.0695 -0.002,0.14627 -0.01,0.20898 -0.006,0.0478 -0.0127,0.0929 -0.0215,0.13672 -0.003,0.0153 -0.006,0.0321 -0.01,0.0469 -0.0147,0.0639 -0.0318,0.12323 -0.0527,0.17774 -0.0203,0.0528 -0.0438,0.10186 -0.0703,0.14844 -0.0156,0.0273 -0.0328,0.053 -0.0508,0.0781 -0.0149,0.0208 -0.0302,0.0412 -0.0469,0.0606 -0.0423,0.0489 -0.0917,0.094 -0.14649,0.13281 -0.0369,0.0263 -0.0759,0.0507 -0.11914,0.0723 -0.0523,0.0259 -0.11344,0.0475 -0.17578,0.0664 -0.0345,0.0104 -0.0697,0.021 -0.10742,0.0293 -0.0133,0.003 -0.0273,0.005 -0.041,0.008 -0.0381,0.007 -0.0778,0.0143 -0.11914,0.0195 -0.0196,0.002 -0.0402,0.004 -0.0606,0.006 -0.12147,0.0118 -0.25567,0.0154 -0.40625,0.01 -0.21353,-0.008 -0.48983,-0.0492 -0.76953,-0.0937 -0.11347,-0.0181 -0.27696,-0.0577 -0.40234,-0.082 -1.54007,-0.29969 -3.93372,-1.03595 -7.85742,-2.375 -5.50128,-1.87745 -11.58865,-3.44186 -17.39453,-4.56836 -2.00691,-0.38902 -3.91257,-0.6591 -5.81641,-0.93164 -0.90496,-0.12952 -1.87636,-0.32488 -2.74609,-0.42579 -2.76867,-0.32112 -5.35475,-0.5039 -7.60352,-0.5039 -0.90638,0 -1.67306,-0.008 -2.3457,0 -0.58174,0.007 -1.05406,0.0321 -1.45899,0.084 -0.11926,0.0152 -0.2497,0.0277 -0.35351,0.0488 -0.0266,0.005 -0.0564,0.01 -0.082,0.0156 -0.10944,0.025 -0.21003,0.0542 -0.30078,0.0879 -0.0736,0.0273 -0.14189,0.0562 -0.20313,0.0898 -0.33583,0.18507 -0.48619,0.4722 -0.44531,0.91406 0.005,0.0594 0.017,0.12231 0.0293,0.1875 0.009,0.0489 0.022,0.10008 0.0352,0.15235 0.0116,0.0461 0.0244,0.0938 0.0391,0.14257 0.0247,0.0822 0.0663,0.18126 0.0996,0.27149 0.0549,0.14872 0.11286,0.30095 0.19141,0.47266 0.0275,0.0602 0.0633,0.12827 0.0937,0.1914 0.18769,0.38963 0.48373,0.89802 0.7832,1.41016 0.15742,0.26931 0.28987,0.50966 0.47852,0.8164 1.00517,1.63694 2.40647,3.75539 4.32617,6.6875 4.65544,7.11063 7.57681,12.04157 9.04492,15.28907 0.0444,0.0983 0.11066,0.22516 0.15235,0.32031 0.0688,0.15695 0.11827,0.29293 0.17968,0.44141 0.17498,0.42321 0.32542,0.8179 0.44141,1.17382 0.0837,0.25667 0.16517,0.5116 0.21875,0.73438 0.0122,0.0506 0.0304,0.10736 0.041,0.15625 0.0133,0.0613 0.0223,0.11715 0.0332,0.17578 0.0269,0.14445 0.0482,0.2818 0.0605,0.41016 0.008,0.0779 0.0153,0.15451 0.0176,0.22656 0.003,0.10016 0.001,0.19804 -0.006,0.28711 -0.002,0.031 -0.004,0.0621 -0.008,0.0918 -0.0166,0.13339 -0.0449,0.25438 -0.0859,0.36133 -0.005,0.0125 -0.0105,0.0251 -0.0176,0.0391 0,0 0,0.002 0,0.002 -0.007,0.0129 -0.0169,0.0289 -0.0254,0.043 -0.0177,0.0293 -0.0409,0.0614 -0.0664,0.0957 -9.7e-4,0.001 -9.8e-4,0.003 -0.002,0.004 -0.0413,0.0552 -0.10317,0.1239 -0.16407,0.1914 -0.0198,0.0219 -0.0329,0.0394 -0.0547,0.0625 -0.0876,0.0932 -0.23648,0.22318 -0.35547,0.33594 -0.1292,0.12235 -0.24228,0.2352 -0.40625,0.37891 -0.21367,0.18728 -0.5831,0.46717 -0.85157,0.6875 -0.51279,0.42092 -1.01213,0.83144 -1.69921,1.35351 -2.25381,1.71307 -5.30961,3.87603 -8.65625,6.08594 -5.42644,3.58326 -9.9747,6.90631 -14.42774,10.35547 -5.605,4.33403 -10.84446,8.76748 -16.67578,14.28906 -1.66934,1.58068 -3.32621,2.99322 -4.69727,4.04688 -0.44511,0.34235 -0.79449,0.57693 -1.16406,0.83007 -0.21899,0.15001 -0.48939,0.35863 -0.67578,0.47266 -0.15612,0.0956 -0.28174,0.1604 -0.41211,0.22852 -0.0804,0.042 -0.17823,0.10187 -0.24805,0.13281 -0.0371,0.0165 -0.0675,0.0258 -0.10156,0.0391 -0.13162,0.0512 -0.24707,0.0859 -0.32812,0.0859 -0.0183,0 -0.0375,-0.002 -0.0566,-0.004 -0.009,-9.7e-4 -0.0167,-0.002 -0.0254,-0.004 -0.0789,-0.0129 -0.16363,-0.0427 -0.25391,-0.0898 -0.0348,-0.0182 -0.0731,-0.0453 -0.10938,-0.0684 -0.0313,-0.0198 -0.0614,-0.0373 -0.0937,-0.0605 -0.0285,-0.0206 -0.0586,-0.0452 -0.0879,-0.0684 -0.041,-0.0325 -0.0826,-0.066 -0.125,-0.10352 -0.0495,-0.0438 -0.10315,-0.10589 -0.15429,-0.15625 -0.0981,-0.0965 -0.19577,-0.19146 -0.29883,-0.31055 -0.0651,-0.0752 -0.13263,-0.16449 -0.19922,-0.24804 -0.0875,-0.10973 -0.1724,-0.2187 -0.26172,-0.3418 -0.21441,-0.29544 -0.43171,-0.65834 -0.64844,-1.01953 -0.0992,-0.16533 -0.19701,-0.29991 -0.29492,-0.47656 -0.30885,-0.55712 -0.60841,-1.16085 -0.88086,-1.79883 -1.50272,-3.51883 -3.04823,-8.13615 -4.55273,-13.33985 -0.49942,-1.72682 -0.93408,-3.74717 -1.41992,-5.59765 -0.94657,-3.60427 -1.87184,-7.10312 -2.72852,-11.00391 -2.52241,-11.47003 -4.57352,-23.65859 -5.45508,-33.80859 -1.06014,-12.20618 -1.11951,-23.99327 -0.68164,-35.61524 0.0836,-2.21571 0.12352,-4.46585 0.26172,-6.66406 0.75092,-11.93813 2.12592,-23.68548 4.49414,-35.2207 1.6373,-7.975 3.2344,-15.95568 3.54883,-17.73438 0.56934,-3.22071 1.30072,-4.71593 3.27148,-4.67773 z m 496.08594,0 c 0.13487,-0.003 0.26311,0.004 0.38672,0.0156 0.043,0.004 0.0833,0.0117 0.125,0.0176 0.0822,0.0116 0.16299,0.0246 0.24023,0.043 0.0771,0.0184 0.15416,0.0372 0.22657,0.0625 0.006,0.002 0.0136,0.006 0.0195,0.008 0.0812,0.0292 0.15877,0.0636 0.23437,0.10157 0.0137,0.007 0.0275,0.0143 0.041,0.0215 0.0777,0.0412 0.15258,0.0878 0.22461,0.13867 0.017,0.012 0.034,0.0246 0.0508,0.0371 0.0635,0.0477 0.12626,0.0988 0.18555,0.1543 0.0871,0.0815 0.1694,0.17103 0.24804,0.26953 0.0225,0.0281 0.0426,0.0603 0.0645,0.0898 0.0505,0.0683 0.10122,0.13907 0.14843,0.21485 0.0249,0.04 0.0482,0.0829 0.0723,0.125 0.047,0.0822 0.0928,0.16759 0.13672,0.25781 0.014,0.0288 0.0273,0.0583 0.041,0.0879 0.0433,0.0935 0.0826,0.1991 0.12305,0.30078 0.0648,0.16279 0.12705,0.33558 0.18555,0.51953 0.0203,0.0639 0.0409,0.13084 0.0605,0.19727 0.17081,0.5779 0.32002,1.24053 0.45704,2.01562 0.31443,1.7787 1.91152,9.75938 3.54882,17.73438 5.09272,24.8058 6.43471,50.322 4.07422,77.5 -2.36591,27.24033 -12.99479,68.5 -17.64648,68.5 -0.80487,0 -4.23707,-2.6261 -7.62696,-5.83594 -10.42544,-9.87168 -18.90449,-16.58911 -31.10351,-24.64453 -6.4371,-4.25064 -11.97176,-8.42697 -12.29883,-9.2793 -0.72098,-1.87886 2.30753,-7.78141 10.08984,-19.66797 7.98225,-12.19194 7.93494,-11.57226 0.88672,-11.57226 -8.74726,0 -22.36525,2.60903 -33.56054,6.42969 -8.03937,2.74363 -9.92315,3.09234 -10.37305,1.91992 -1.23663,-3.22261 8.46296,-22.90383 20.13281,-40.84961 16.91672,-26.01437 43.45352,-52.07875 63.25391,-62.12891 3.53614,-1.79485 5.81874,-2.7535 7.35156,-2.7832 z M 258.55273,361.50155 c 1.07095,-3.6e-4 2.13998,0.0605 3.20507,0.17383 0.36427,0.0387 0.72468,0.11626 1.0879,0.16797 0.70941,0.10099 1.41869,0.1982 2.12304,0.34765 0.40268,0.0855 0.80051,0.20763 1.20117,0.3086 0.64322,0.16208 1.28668,0.32021 1.92383,0.52148 0.46015,0.14534 0.91265,0.3249 1.36914,0.49024 0.57933,0.20981 1.15971,0.41296 1.73242,0.65429 0.44695,0.18836 0.88567,0.40614 1.32813,0.61329 0.5746,0.26897 1.14856,0.53597 1.71484,0.83593 0.43817,0.23211 0.86806,0.48805 1.30078,0.73828 0.4795,0.27727 0.95544,0.55837 1.42774,0.85743 0.89565,0.56708 1.73463,1.26925 2.60156,1.91211 1.06199,0.7874 2.12402,1.55574 3.13672,2.45117 1.08491,0.95906 2.08913,2.04742 3.10938,3.12304 0.75653,0.79756 1.54085,1.53657 2.25781,2.39454 1.00586,1.20346 1.90431,2.53464 2.82422,3.8496 0.61964,0.88569 1.28622,1.70764 1.86328,2.64063 0.94847,1.53338 1.75888,3.19395 2.58203,4.8457 0.42054,0.84382 0.90962,1.62369 1.29492,2.4961 1.13985,2.58065 2.13361,5.27242 2.93555,8.07617 0.51604,1.80421 0.9012,3.95325 1.20312,6.23242 0.0348,0.26243 0.0774,0.4949 0.10938,0.76172 0.11486,0.95845 0.13276,1.99079 0.21094,2.99414 0.14046,1.7991 0.26667,3.55665 0.28906,5.41797 0.0265,2.12253 -0.0896,4.1363 -0.2168,6.19336 -0.0666,1.08086 -0.0569,2.19475 -0.16601,3.22461 -0.0984,0.93043 -0.22629,1.79873 -0.35938,2.66992 -0.0692,0.45284 -0.12069,0.93379 -0.19922,1.36719 -0.23813,1.31445 -0.51356,2.54674 -0.83789,3.63867 -0.83491,2.81088 -1.85968,5.47374 -3.03125,8 -0.4051,0.87354 -0.91889,1.63531 -1.36133,2.47265 -0.83948,1.58891 -1.6628,3.19174 -2.6289,4.64454 -1.24817,1.87706 -2.60107,3.62637 -4.04102,5.26171 -0.264,0.29984 -0.5171,0.61096 -0.78711,0.90235 -0.38835,0.41912 -0.78901,0.81736 -1.18945,1.21875 -0.49336,0.49452 -0.98898,0.98408 -1.5,1.45117 -0.42425,0.38778 -0.85898,0.75648 -1.29492,1.125 -0.50386,0.42595 -1.0124,0.84243 -1.53125,1.24219 -0.55391,0.42677 -1.11925,0.83023 -1.68946,1.22656 -0.4931,0.34276 -0.9855,0.68433 -1.49023,1.00391 -0.59673,0.37783 -1.20618,0.72547 -1.81836,1.07031 -0.49982,0.28154 -0.99627,0.56701 -1.50586,0.82617 -0.63773,0.32435 -1.2892,0.61173 -1.94141,0.90039 -0.51843,0.22945 -1.03154,0.46927 -1.55859,0.67578 -0.65994,0.25862 -1.33323,0.47523 -2.00586,0.69727 -0.53393,0.17624 -1.06211,0.36671 -1.60351,0.51953 -0.68857,0.19438 -1.39003,0.34219 -2.08985,0.49805 -0.54984,0.12245 -1.09412,0.26303 -1.65039,0.36132 -0.74767,0.13213 -1.50731,0.21107 -2.26562,0.29883 -0.51035,0.0591 -1.01455,0.14493 -1.5293,0.1836 -0.84914,0.0638 -1.71042,0.063 -2.57031,0.0703 -0.4491,0.004 -0.89203,0.0391 -1.34375,0.0273 -1.30846,-0.0342 -2.62622,-0.12898 -3.95313,-0.29687 -0.93112,-0.11782 -1.86173,-0.28724 -2.78906,-0.49805 -0.29799,-0.0677 -0.59332,-0.16513 -0.89063,-0.24219 -0.62058,-0.16085 -1.24078,-0.31903 -1.85742,-0.51953 -0.38115,-0.12392 -0.75748,-0.27929 -1.13672,-0.41797 -0.53728,-0.19647 -1.07471,-0.38791 -1.60742,-0.61328 -0.38158,-0.16142 -0.75787,-0.34756 -1.13672,-0.52344 -0.47868,-0.22222 -0.95595,-0.44278 -1.42968,-0.6875 -0.74649,-0.38557 -1.45731,-0.88675 -2.18946,-1.32617 -1.05318,-0.63205 -2.10788,-1.2452 -3.125,-1.98242 -0.71421,-0.5176 -1.38486,-1.11919 -2.07812,-1.68555 -0.92888,-0.75877 -1.85834,-1.50279 -2.74414,-2.34375 -0.93838,-0.89075 -1.80667,-1.87568 -2.68946,-2.85156 -0.66428,-0.73425 -1.3533,-1.42429 -1.98242,-2.20312 -0.87771,-1.08646 -1.66103,-2.2637 -2.46289,-3.42969 -0.53663,-0.78027 -1.11384,-1.51539 -1.61328,-2.32813 -0.8328,-1.35507 -1.5419,-2.7945 -2.26172,-4.23046 -0.35713,-0.71243 -0.7764,-1.38115 -1.10351,-2.11133 -0.98731,-2.20369 -1.84416,-4.47914 -2.53125,-6.81836 -0.24419,-0.83133 -0.45667,-1.80516 -0.64454,-2.86524 -0.0591,-0.33362 -0.10082,-0.71773 -0.15429,-1.07031 -0.11014,-0.72582 -0.2148,-1.45525 -0.30078,-2.25 -0.0911,-0.84121 -0.10233,-1.80244 -0.16602,-2.70312 -0.12577,-1.77374 -0.24226,-3.51865 -0.25977,-5.41797 -0.0155,-1.63078 0.0433,-3.21777 0.10938,-4.84571 0.0351,-0.8667 0.0313,-1.72166 0.0898,-2.56836 0.17036,-2.46967 0.42464,-4.83677 0.79883,-6.91406 0.30367,-1.68584 1.07808,-4.22494 2.05274,-6.93164 0.91484,-2.54438 1.99274,-5.202 3.07812,-7.46289 4.88617,-10.17803 12.20168,-17.99701 20.54102,-22.43164 4.16967,-2.21733 8.59633,-3.58992 13.10156,-3.98633 0.90104,-0.0793 1.80491,-0.11883 2.71094,-0.11914 z m 268.89453,0 c 14.49639,0.005 28.53564,10.25226 36.35351,26.53711 4.68508,9.75918 6.19922,16.83367 6.19922,28.96289 0,29.13255 -22.45712,52.08183 -47.82617,48.87305 -15.91238,-2.01271 -30.2619,-15.79965 -35.7793,-34.375 -2.4556,-8.26722 -2.43966,-23.85426 0.0332,-32.5 4.42665,-15.47658 13.8642,-27.56463 26.33203,-33.72656 6.65231,-3.28776 8.54389,-3.77349 14.6875,-3.77149 z"
         style="fill:#f0651b"
         id="path127" />
      <path
         d="m 527.44726,361.50155 c -6.14361,-0.002 -8.03519,0.48373 -14.6875,3.77149 -12.46783,6.16193 -21.90538,18.24998 -26.33203,33.72656 -2.47287,8.64574 -2.48881,24.23278 -0.0332,32.5 5.5174,18.57535 19.86692,32.36229 35.7793,34.375 C 547.54288,469.08338 570,446.1341 570,417.00155 c 0,-12.12922 -1.51414,-19.20371 -6.19922,-28.96289 -7.81787,-16.28485 -21.85712,-26.53211 -36.35351,-26.53711 z"
         style="fill:#2e1a3c"
         id="path164" />
      <path
         d="m 216.33007,422.17929 c -0.12445,-1.75978 -0.24182,-3.53448 -0.25977,-5.41797 0.0175,1.89932 0.134,3.64423 0.25977,5.41797 z"
         style="fill:#2e1a3c"
         id="path159" />
      <path
         d="m 258.55273,361.50155 c -14.49639,0.005 -28.53565,10.25226 -36.35352,26.53711 -1.07992,2.2495 -2.166,4.92986 -3.07812,7.46289 -0.96805,2.69233 -1.7505,5.25379 -2.05274,6.93164 -0.37345,2.07323 -0.62841,4.44967 -0.79883,6.91406 -0.0578,0.83831 -0.055,1.71046 -0.0898,2.56836 -0.0653,1.61401 -0.12428,3.22874 -0.10938,4.84571 0.0179,1.88349 0.13532,3.65819 0.25977,5.41797 0.0633,0.89341 0.0757,1.86828 0.16602,2.70312 0.0857,0.79165 0.19108,1.52677 0.30078,2.25 0.0533,0.35157 0.0953,0.7376 0.15429,1.07031 0.18786,1.06003 0.40036,2.03394 0.64454,2.86524 0.68695,2.33875 1.54419,4.61509 2.53125,6.81836 0.32683,0.72949 0.74672,1.39956 1.10351,2.11133 0.71935,1.43497 1.42954,2.87627 2.26172,4.23046 0.4987,0.81146 1.0775,1.54904 1.61328,2.32813 0.80092,1.16454 1.5863,2.34448 2.46289,3.42969 0.62786,0.77718 1.31954,1.47033 1.98242,2.20312 0.88144,0.97427 1.75262,1.96216 2.68946,2.85156 0.88455,0.83966 1.81664,1.58604 2.74414,2.34375 0.692,0.56528 1.36525,1.16885 2.07812,1.68555 1.01606,0.73635 2.07295,1.35101 3.125,1.98242 0.73135,0.43891 1.44379,0.94099 2.18946,1.32617 0.47335,0.2445 0.95139,0.46547 1.42968,0.6875 0.37874,0.17583 0.75525,0.36206 1.13672,0.52344 0.53256,0.22529 1.07029,0.41687 1.60742,0.61328 0.37907,0.13862 0.75575,0.2941 1.13672,0.41797 0.61644,0.20043 1.23704,0.35874 1.85742,0.51953 0.29731,0.0771 0.59264,0.17445 0.89063,0.24219 0.9273,0.21081 1.85797,0.38024 2.78906,0.49805 1.32662,0.16785 2.64495,0.2627 3.95313,0.29687 0.45146,0.0118 0.8949,-0.0235 1.34375,-0.0273 0.86012,-0.007 1.72095,-0.007 2.57031,-0.0703 0.51477,-0.0387 1.01892,-0.12453 1.5293,-0.1836 0.7579,-0.0877 1.51835,-0.16678 2.26562,-0.29883 0.55606,-0.0983 1.10075,-0.23891 1.65039,-0.36132 0.6995,-0.15579 1.40159,-0.30378 2.08985,-0.49805 0.5412,-0.15278 1.06978,-0.34334 1.60351,-0.51953 0.6724,-0.22196 1.34614,-0.43877 2.00586,-0.69727 0.5267,-0.2064 1.0405,-0.44647 1.55859,-0.67578 0.65192,-0.28853 1.30395,-0.5762 1.94141,-0.90039 0.50928,-0.25901 1.00634,-0.5448 1.50586,-0.82617 0.612,-0.34474 1.2218,-0.6926 1.81836,-1.07031 0.5043,-0.31931 0.99754,-0.66146 1.49023,-1.00391 0.56993,-0.39616 1.13582,-0.8 1.68946,-1.22656 0.51849,-0.39949 1.02773,-0.81655 1.53125,-1.24219 0.43549,-0.36816 0.8711,-0.73762 1.29492,-1.125 0.51101,-0.46708 1.00665,-0.95666 1.5,-1.45117 0.40022,-0.40116 0.80131,-0.79988 1.18945,-1.21875 0.2695,-0.29086 0.52359,-0.60307 0.78711,-0.90235 1.43947,-1.63485 2.79321,-3.3853 4.04102,-5.26171 0.9655,-1.45198 1.78987,-3.05662 2.6289,-4.64454 0.4421,-0.83676 0.95652,-1.59975 1.36133,-2.47265 1.17152,-2.52619 2.19636,-5.1892 3.03125,-8 0.32428,-1.09174 0.59978,-2.32447 0.83789,-3.63867 0.0783,-0.43236 0.13021,-0.91548 0.19922,-1.36719 0.1325,-0.86763 0.26124,-1.74353 0.35938,-2.66992 0.10813,-1.02215 0.0997,-2.15221 0.16601,-3.22461 0.12576,-2.03973 0.24211,-4.08901 0.2168,-6.19336 -0.023,-1.844 -0.15017,-3.63528 -0.28906,-5.41797 -0.0778,-0.99617 -0.097,-2.04226 -0.21094,-2.99414 -0.0315,-0.26268 -0.0751,-0.5033 -0.10938,-0.76172 -0.30187,-2.27761 -0.68738,-4.42929 -1.20312,-6.23242 -0.80179,-2.80323 -1.79597,-5.49595 -2.93555,-8.07617 -0.38493,-0.8715 -0.87483,-1.65313 -1.29492,-2.4961 -0.82268,-1.65072 -1.63418,-3.31321 -2.58203,-4.8457 -0.5764,-0.93186 -1.2444,-1.75596 -1.86328,-2.64063 -0.91862,-1.31302 -1.81989,-2.64776 -2.82422,-3.8496 -0.71567,-0.85626 -1.50273,-1.59847 -2.25781,-2.39454 -1.01868,-1.0739 -2.02624,-2.16533 -3.10938,-3.12304 -1.01077,-0.89353 -2.07685,-1.66525 -3.13672,-2.45117 -0.866,-0.64209 -1.70691,-1.34562 -2.60156,-1.91211 -0.47174,-0.29869 -0.94882,-0.58048 -1.42774,-0.85743 -0.43261,-0.25015 -0.86273,-0.50624 -1.30078,-0.73828 -0.56588,-0.29975 -1.14065,-0.56712 -1.71484,-0.83593 -0.44225,-0.20702 -0.8814,-0.42504 -1.32813,-0.61329 -0.57288,-0.24143 -1.15291,-0.4444 -1.73242,-0.65429 -0.45604,-0.16517 -0.90946,-0.34503 -1.36914,-0.49024 -0.63679,-0.20113 -1.28098,-0.35949 -1.92383,-0.52148 -0.40065,-0.10096 -0.7985,-0.22315 -1.20117,-0.3086 -0.70433,-0.14946 -1.41365,-0.24666 -2.12304,-0.34765 -0.36316,-0.0517 -0.72369,-0.12923 -1.0879,-0.16797 -1.06511,-0.1133 -2.1341,-0.17419 -3.20507,-0.17383 z"
         style="fill:#2e1a3c"
         id="path156" />
      <path
         d="m 641.04296,102.58749 c -1.53282,0.0297 -3.81542,0.98835 -7.35156,2.7832 -19.80039,10.05016 -46.33719,36.11454 -63.25391,62.12891 -11.66985,17.94578 -21.36944,37.627 -20.13281,40.84961 0.4499,1.17242 2.33368,0.82371 10.37305,-1.91992 11.19529,-3.82066 24.81328,-6.42969 33.56054,-6.42969 7.04822,0 7.09553,-0.61968 -0.88672,11.57226 -7.78231,11.88656 -10.81082,17.78911 -10.08984,19.66797 0.32707,0.85233 5.86173,5.02866 12.29883,9.2793 12.19902,8.05542 20.67807,14.77285 31.10351,24.64453 3.38989,3.20984 6.82209,5.83594 7.62696,5.83594 4.65169,0 15.28057,-41.25967 17.64648,-68.5 2.36049,-27.178 1.0185,-52.6942 -4.07422,-77.5 -1.6373,-7.975 -3.23439,-15.95568 -3.54882,-17.73438 -0.13691,-0.77444 -0.28641,-1.43805 -0.45704,-2.01562 -0.0197,-0.0668 -0.0401,-0.13305 -0.0605,-0.19727 -0.0588,-0.1849 -0.12047,-0.35599 -0.18555,-0.51953 -0.0403,-0.10127 -0.08,-0.20764 -0.12305,-0.30078 -0.0138,-0.0297 -0.027,-0.059 -0.041,-0.0879 -0.0439,-0.0903 -0.0897,-0.17552 -0.13672,-0.25781 -0.024,-0.042 -0.0474,-0.0851 -0.0723,-0.125 -0.0475,-0.0763 -0.0976,-0.14612 -0.14843,-0.21485 -0.0217,-0.0293 -0.0421,-0.0619 -0.0645,-0.0898 -0.0763,-0.0955 -0.15598,-0.18412 -0.24023,-0.26367 -0.0618,-0.0584 -0.12692,-0.1103 -0.19336,-0.16016 -0.0167,-0.0126 -0.0337,-0.0251 -0.0508,-0.0371 -0.0718,-0.0507 -0.14713,-0.0975 -0.22461,-0.13867 -0.0137,-0.007 -0.0272,-0.0145 -0.041,-0.0215 -0.081,-0.0407 -0.16646,-0.0788 -0.2539,-0.10938 -0.0729,-0.0254 -0.14898,-0.044 -0.22657,-0.0625 -0.0773,-0.0185 -0.15799,-0.0314 -0.24023,-0.043 -0.0417,-0.006 -0.082,-0.0135 -0.125,-0.0176 -0.12385,-0.0119 -0.25156,-0.0182 -0.38672,-0.0156 z"
         style="fill:#2e1a3c"
         id="path155" />
      <path
         d="m 144.95702,102.58749 c -1.97076,-0.0382 -2.70214,1.45702 -3.27148,4.67773 -0.31443,1.7787 -1.91153,9.75938 -3.54883,17.73438 -2.36876,11.53783 -3.74341,23.27976 -4.49414,35.2207 -0.13865,2.2042 -0.17801,4.44227 -0.26172,6.66406 -0.43843,11.62517 -0.37881,23.40556 0.68164,35.61524 0.87934,10.12436 2.94155,22.36354 5.45508,33.80859 0.84991,3.86474 1.79047,7.43111 2.72852,11.00391 0.48297,1.83903 0.92354,3.88079 1.41992,5.59765 1.50301,5.19691 3.05159,9.82472 4.55273,13.33985 0.27215,0.63728 0.57237,1.24221 0.88086,1.79883 0.0974,0.17569 0.19623,0.31208 0.29492,0.47656 0.21625,0.36033 0.4345,0.72465 0.64844,1.01953 0.0889,0.12245 0.17468,0.2326 0.26172,0.3418 0.0664,0.0833 0.13429,0.17302 0.19922,0.24804 0.10256,0.1185 0.20121,0.21442 0.29883,0.31055 0.0512,0.0504 0.10473,0.11243 0.15429,0.15625 0.0426,0.0377 0.0838,0.0709 0.125,0.10352 0.0291,0.023 0.0596,0.0479 0.0879,0.0684 0.0696,0.0502 0.13848,0.0951 0.20313,0.1289 0.12259,0.0639 0.235,0.0977 0.33594,0.0977 0.0503,0 0.11148,-0.0112 0.18164,-0.0312 0.0432,-0.0123 0.0961,-0.0351 0.14648,-0.0547 0.034,-0.0132 0.0644,-0.0226 0.10156,-0.0391 0.0697,-0.0309 0.16775,-0.0909 0.24805,-0.13281 0.13013,-0.068 0.2563,-0.1332 0.41211,-0.22852 0.18601,-0.11384 0.45735,-0.32303 0.67578,-0.47266 0.36625,-0.25087 0.72353,-0.49152 1.16406,-0.83007 1.36884,-1.05283 3.03281,-2.47082 4.69727,-4.04688 5.78794,-5.48051 11.11807,-9.98426 16.67578,-14.28906 4.41583,-3.41451 9.05206,-6.80573 14.42774,-10.35547 3.34117,-2.20629 6.40336,-4.37412 8.65625,-6.08594 0.68113,-0.51771 1.18985,-0.93549 1.69921,-1.35351 0.26671,-0.21892 0.63904,-0.50125 0.85157,-0.6875 0.16452,-0.14421 0.27678,-0.25623 0.40625,-0.37891 0.32709,-0.30976 0.58879,-0.5784 0.66797,-0.73242 0,0 0,-0.002 0,-0.002 0.007,-0.014 0.0128,-0.0265 0.0176,-0.0391 0.0209,-0.0545 0.0382,-0.11257 0.0527,-0.17383 0.004,-0.0158 0.006,-0.0326 0.01,-0.0488 0.009,-0.0443 0.0175,-0.091 0.0234,-0.13868 0.004,-0.03 0.005,-0.0605 0.008,-0.0918 0.003,-0.0373 0.005,-0.076 0.006,-0.11524 8.6e-4,-0.0284 0.004,-0.0565 0.004,-0.0859 -7e-5,-0.0276 -0.003,-0.0575 -0.004,-0.0859 -0.002,-0.0717 -0.0101,-0.14914 -0.0176,-0.22656 -0.0124,-0.12776 -0.0338,-0.26649 -0.0605,-0.41016 -0.011,-0.0588 -0.0198,-0.11422 -0.0332,-0.17578 -0.0106,-0.049 -0.0288,-0.10557 -0.041,-0.15625 -0.0534,-0.22221 -0.13535,-0.47846 -0.21875,-0.73438 -0.11617,-0.35629 -0.26616,-0.75015 -0.44141,-1.17382 -0.0616,-0.14887 -0.11073,-0.28402 -0.17968,-0.44141 -0.0425,-0.097 -0.10702,-0.22006 -0.15235,-0.32031 -1.46696,-3.24734 -4.38594,-8.17302 -9.04492,-15.28907 -1.90632,-2.91167 -3.32177,-5.05429 -4.32617,-6.6875 -0.17931,-0.292 -0.32777,-0.55861 -0.47852,-0.8164 -0.29807,-0.50996 -0.59613,-1.02184 -0.7832,-1.41016 -0.0298,-0.0619 -0.0667,-0.13234 -0.0937,-0.1914 -0.078,-0.17062 -0.13679,-0.32477 -0.19141,-0.47266 -0.0334,-0.0903 -0.0749,-0.18916 -0.0996,-0.27149 -0.0147,-0.0491 -0.0274,-0.0962 -0.0391,-0.14257 -0.0131,-0.0522 -0.0259,-0.1035 -0.0352,-0.15235 -0.0121,-0.0641 -0.0239,-0.12898 -0.0293,-0.1875 -0.001,-0.0121 -0.003,-0.0252 -0.004,-0.0371 -0.007,-0.10499 -0.003,-0.19942 0.0117,-0.28711 0.004,-0.0239 0.008,-0.0476 0.0137,-0.0703 0.004,-0.0142 0.009,-0.0273 0.0137,-0.041 0.006,-0.02 0.012,-0.0396 0.0195,-0.0586 0.005,-0.0124 0.0101,-0.0251 0.0156,-0.0371 0.0102,-0.0224 0.0229,-0.0435 0.0352,-0.0645 0.006,-0.01 0.01,-0.02 0.0156,-0.0293 0.0137,-0.0212 0.0291,-0.0408 0.0449,-0.0605 0.005,-0.007 0.0102,-0.0131 0.0156,-0.0195 0.0157,-0.0184 0.0331,-0.0356 0.0508,-0.0527 0.0598,-0.0582 0.13077,-0.11099 0.21289,-0.15625 0.091,-0.05 0.20017,-0.0907 0.31836,-0.12695 0.0597,-0.0183 0.11899,-0.0356 0.18555,-0.0508 0.0257,-0.006 0.0554,-0.0102 0.082,-0.0156 0.10223,-0.0208 0.23631,-0.0338 0.35351,-0.0488 0.4003,-0.051 0.88637,-0.0771 1.45899,-0.084 0.66898,-0.008 1.44688,0 2.3457,0 2.24959,0 4.83369,0.18255 7.60352,0.5039 0.87207,0.10115 1.83861,0.29588 2.74609,0.42579 1.91266,0.27372 3.79983,0.54036 5.81641,0.93164 5.81302,1.12678 11.88575,2.68836 17.39453,4.56836 3.93178,1.34181 6.31796,2.07663 7.85742,2.375 0.13028,0.0254 0.28486,0.0633 0.40234,0.082 0.26531,0.0423 0.52481,0.0823 0.73047,0.0918 0.16565,0.008 0.31389,0.005 0.44531,-0.008 0.0204,-0.002 0.0409,-0.003 0.0606,-0.006 0.0986,-0.0124 0.18727,-0.0323 0.26758,-0.0566 0.0163,-0.005 0.0332,-0.0102 0.0488,-0.0156 0.044,-0.0153 0.0883,-0.0317 0.12695,-0.0508 0.0453,-0.0226 0.0866,-0.0485 0.125,-0.0762 0.0217,-0.0157 0.0429,-0.0315 0.0625,-0.0488 0.0277,-0.0244 0.0542,-0.0525 0.0781,-0.0801 0.0709,-0.0823 0.12593,-0.17758 0.16796,-0.28711 0.0395,-0.10295 0.0665,-0.22538 0.084,-0.36133 0.008,-0.0627 0.006,-0.13941 0.01,-0.20898 0.004,-0.0871 0.0106,-0.17188 0.008,-0.26954 -0.002,-0.086 -0.0116,-0.18333 -0.0195,-0.27734 -0.008,-0.0972 -0.0154,-0.19321 -0.0293,-0.29883 -0.0124,-0.0941 -0.03,-0.19621 -0.0469,-0.29687 -0.0157,-0.0939 -0.0351,-0.19151 -0.0547,-0.29102 -0.0679,-0.34502 -0.25618,-0.8601 -0.36914,-1.26953 -0.19353,-0.70121 -0.40135,-1.42528 -0.71875,-2.29883 -0.3569,-0.98155 -1.08274,-2.44044 -1.58204,-3.61133 -0.87372,-2.04776 -1.7974,-4.15231 -3.04492,-6.65429 -3.70538,-7.41888 -8.74424,-16.36181 -14.36914,-25.01172 -4.3456,-6.68263 -9.35929,-13.35456 -14.69726,-19.77149 -1.78541,-2.14596 -3.74854,-4.03577 -5.60352,-6.11132 -3.67964,-4.11669 -7.35017,-8.27028 -11.18164,-11.99024 -3.60689,-3.5008 -7.21063,-6.47806 -10.8125,-9.49023 -1.89409,-1.58379 -3.81746,-3.46802 -5.68164,-4.88867 -1.73106,-1.31907 -3.41655,-2.47439 -5.10547,-3.63672 -0.88062,-0.60604 -1.78838,-1.30305 -2.6543,-1.86328 -2.58417,-1.6719 -5.10396,-3.15187 -7.51757,-4.37696 -1.6449,-0.8349 -2.96603,-1.44646 -4.11914,-1.91015 -0.41377,-0.16661 -0.7949,-0.30459 -1.1543,-0.42188 -0.22478,-0.0734 -0.47273,-0.1688 -0.67774,-0.22266 -0.15533,-0.0408 -0.30466,-0.074 -0.44921,-0.10351 -0.0911,-0.0186 -0.1865,-0.0426 -0.27344,-0.0566 -0.23987,-0.0388 -0.46741,-0.0643 -0.67774,-0.0684 z"
         style="fill:#2e1a3c"
         id="path134" />
      <path
         d="m 454.7207,630.73788 c 2.13042,-1.17425 3.99416,-2.37102 5.10546,-3.32227 3.58091,-3.06512 4.17383,-4.12859 4.17383,-7.49414 0,-2.58875 -0.67991,-4.60178 -2,-5.92187 -3.14015,-3.14015 -4.55739,-3.02404 -15.5,1.26367 -7.01446,2.74851 -9.23193,3.14075 -18,3.18555 -9.54537,0.0488 -10.28876,-0.1058 -16.34765,-3.39063 -3.27293,-1.7744 -6.30918,-4.08822 -7.04297,-5.33594 -0.0489,-0.0832 -0.0874,-0.16114 -0.11524,-0.23437 -1.35927,-3.57515 -2.30342,-30.69711 -1.16992,-33.59766 0.57477,-1.47082 3.12577,-3.82845 5.84766,-5.40429 12.91518,-7.47725 24.33122,-19.57539 27.83008,-29.49219 3.33672,-9.45728 0.63809,-18.55611 -7.18165,-24.2207 -5.19855,-3.76581 -12.39097,-4.66602 -37.32031,-4.66602 -24.92934,0 -32.12176,0.90021 -37.32031,4.66602 -7.81974,5.66459 -10.51836,14.76342 -7.18164,24.2207 3.49886,9.9168 14.9149,22.01494 27.83008,29.49219 2.72189,1.57584 5.27288,3.93347 5.84765,5.40429 0.76843,1.96637 0.58268,15.06357 -0.041,24.41016 0.10604,0.79536 0.0379,1.96346 -0.0645,3.73437 -0.14045,2.42931 -0.26852,3.76133 -0.88671,4.8379 -0.0589,0.24902 -0.11709,0.4557 -0.17774,0.61523 -0.0278,0.0732 -0.0663,0.15119 -0.11523,0.23437 -0.73379,1.24772 -3.77005,3.56154 -7.04297,5.33594 -6.05889,3.28483 -6.80229,3.43943 -16.34766,3.39063 -8.76807,-0.0448 -10.98554,-0.43704 -18,-3.18555 -10.94261,-4.28771 -12.35985,-4.40382 -15.5,-1.26367 -0.007,0.007 -0.0144,0.0143 -0.0215,0.0215 -2.07559,3.3587 -1.66557,8.06317 1.30078,11.22071 3.02994,3.22522 15.08455,9.04768 22.7793,11.0039 3.74993,0.95334 8.97294,1.31776 15.21093,1.06055 9.34804,-0.38545 12.79241,-1.30178 26.75,-7.11133 4.06498,-1.69196 4.43502,-1.69196 8.5,0 23.12492,9.62525 36.27878,9.92303 54.72461,1.23828 0.49083,-0.25419 1.00646,-0.43621 1.47657,-0.69531 z"
         style="fill:#2e1a3c"
         id="path129" />
    </g>
  </g>
</svg>
