<svg xmlns="http://www.w3.org/2000/svg" width="100" height="100" viewBox="0 0 100 100">
  <path fill="none" stroke="currentColor" stroke-width="6" stroke-linecap="round" stroke-linejoin="round" 
        d="M50 90c-25-10-35-30-35-50 0-10 10-20 15-25 10-5 20-5 20-5s10 0 20 5c5 5 15 15 15 25 0 20-10 40-35 50z"/>
  <path fill="none" stroke="currentColor" stroke-width="6" stroke-linecap="round" stroke-linejoin="round" 
        d="M35 50c0-10 7-15 15-15s15 5 15 15-7 15-15 15-15-5-15-15zM65 50c0 10-7 15-15 15s-15-5-15-15 7-15 15-15 15 5 15 15z"/>
</svg>
